<?xml version="1.0" encoding="UTF-8" standalone="no"?>
<!-- Created with Inkscape (http://www.inkscape.org/) -->

<svg
   width="606mm"
   height="756mm"
   viewBox="0 0 606 756"
   version="1.1"
   id="svg8"
   inkscape:version="1.1 (c68e22c387, 2021-05-23)"
   sodipodi:docname="Unoffical Shared Zone road sign (USA &amp; Canada Use).svg"
   xmlns:inkscape="http://www.inkscape.org/namespaces/inkscape"
   xmlns:sodipodi="http://sodipodi.sourceforge.net/DTD/sodipodi-0.dtd"
   xmlns="http://www.w3.org/2000/svg"
   xmlns:svg="http://www.w3.org/2000/svg"
   xmlns:rdf="http://www.w3.org/1999/02/22-rdf-syntax-ns#"
   xmlns:cc="http://creativecommons.org/ns#"
   xmlns:dc="http://purl.org/dc/elements/1.1/">
  <defs id="defs2" />
  <sodipodi:namedview
     id="base"
     pagecolor="#ffffff"
     bordercolor="#666666"
     borderopacity="1.0"
     inkscape:pageopacity="0.0"
     inkscape:pageshadow="2"
     inkscape:zoom="0.12250994"
     inkscape:cx="1228.4717"
     inkscape:cy="1359.0734"
     inkscape:document-units="mm"
     inkscape:current-layer="layer1"
     showgrid="false"
     inkscape:window-width="1366"
     inkscape:window-height="705"
     inkscape:window-x="-8"
     inkscape:window-y="-8"
     inkscape:window-maximized="1"
     showguides="false"
     inkscape:pagecheckerboard="0" />
  <style type="text/css">
    .shine {
      fill: #ff0000;
      fill-opacity: 1;
      fill-rule: evenodd;
      stroke: none;
      stroke-width: 1.14294;
      animation: shineAnimation 2s infinite;
    }

    @keyframes shineAnimation {
  0% {
    fill: #ff0000;
    fill-opacity: 1;
  }
  20% {
    fill: #00ff00;
    fill-opacity: 1;
  }
  40% {
    fill:#ff0000;
    fill-opacity: 1;
  }
  60% {
    fill: #00ff00;
    fill-opacity: 1;
  }
  80% {
    fill: #ff0000;
    fill-opacity: 1;
  }
  100% {
    fill: #ff0000;
    fill-opacity: 1;
   }
   }

  </style>
  <metadata
     id="metadata5">
    <rdf:RDF>
      <cc:Work
         rdf:about="">
        <dc:format>image/svg+xml</dc:format>
        <dc:type
           rdf:resource="http://purl.org/dc/dcmitype/StillImage" />
      </cc:Work>
    </rdf:RDF>
  </metadata>
  
  <g
     inkscape:label="Layer 1"
     inkscape:groupmode="layer"
     id="layer1"
     transform="translate(0,459)">
    <rect
       style="opacity:1;fill:#000000;fill-opacity:1;fill-rule:nonzero;stroke:none;stroke-width:26.6269;stroke-linecap:square;stroke-linejoin:round;stroke-miterlimit:4;stroke-dasharray:none;stroke-dashoffset:0;stroke-opacity:1"
       id="rect10"
       width="604"
       height="754"
       x="1"
       y="-458"
       rx="52"
       ry="52" />
    <rect
       ry="50"
       rx="50"
       y="-456"
       x="3"
       height="750"
       width="600"
       id="rect12"
       style="opacity:1;fill:#ffffff;fill-opacity:1;fill-rule:nonzero;stroke:none;stroke-width:26.4681;stroke-linecap:square;stroke-linejoin:round;stroke-miterlimit:4;stroke-dasharray:none;stroke-dashoffset:0;stroke-opacity:1" />
    <path
       class="shine" d="m 130.24243,-88.023744 c 14.31919,0 26.09191,-10.91146 27.45659,-24.874476 -0.13835,0 -26.15822,0.007 -28.77561,0.007 -2.62432,0 -3.49527,-2.82528 -2.39686,-4.76827 0.5429,-0.95547 7.02594,-12.41551 13.46665,-23.79786 l -0.0343,0.013 c -3.02321,-1.13379 -6.2978,-1.75436 -9.71649,-1.75436 -15.23708,0 -27.59265,12.35265 -27.59265,27.58777 0,15.23509 12.35557,27.586614 27.59265,27.586614 m 34.22312,-31.149114 h 7.72075 l -16.23714,-38.30606 -7.36306,12.71953 c 8.72663,5.494 14.77299,14.7871 15.87945,25.56254 z m 13.03795,-1.52009 43.39773,-37.13113 -0.24786,-1.14524 h -58.42904 z m -43.64585,1.52009 h 23.73626 l 0.0391,0.0194 c -1.01385,-8.32274 -5.73091,-15.32311 -12.44929,-19.65594 z m 78.04375,3.5625 c 0,15.23507 12.35564,27.586607 27.59152,27.586607 15.23708,0 27.59153,-12.351537 27.59153,-27.586607 0,-15.23512 -12.35445,-27.58778 -27.59153,-27.58778 -2.2711,0 -4.47932,0.27441 -6.59612,0.78746 0,0 9.62388,25.21393 9.9371,26.05054 0.60237,1.62065 -0.23328,3.43791 -1.85395,4.04478 -1.62643,0.60234 -3.44379,-0.23423 -4.04616,-1.85953 -0.60348,-1.61606 -9.65696,-26.17968 -9.65696,-26.17968 -9.11071,4.50196 -15.37543,13.89331 -15.37543,24.74421 m -81.65897,-34.4076 c 4.64621,0 9.07412,0.92346 13.1202,2.58644 l 0.008,0.003 c 5.31377,-9.39022 9.82513,-17.36436 9.82513,-17.36436 l -1.77959,-3.18762 c 0,0 -9.58045,-1.37492 -9.69474,-9.75481 9.0078,0.17138 26.44968,0.52004 26.44968,0.52004 0,0 0.97719,-0.0584 1.26299,0.40115 0.68804,0.91776 -0.34406,1.94983 -0.34406,1.94983 l -11.59205,4.99113 2.26536,5.06427 58.38568,-0.0162 c 0,0 -0.11309,-4.35798 0.51542,-6.0792 0.17502,-1.2652 2.69748,-5.39228 2.69748,-5.39228 h -11.2161 c -1.18409,0 -2.15451,-1.02293 -2.15451,-2.27098 0,-1.2458 0.94411,-2.26299 2.09624,-2.26299 h 20.39991 c 0,0 0.91669,0.13607 1.2036,1.37493 -0.0558,0.80347 0.72805,4.47795 -2.46652,4.47795 -3.49982,2.80817 -4.41874,4.64712 -4.41874,4.64712 0,0 -1.09045,2.17953 -0.51558,4.64367 0,0.40575 6.24186,16.8489 6.24186,16.8489 2.85745,-0.77031 5.86234,-1.18064 8.96207,-1.18064 19.00094,1e-5 34.40483,15.40202 34.40483,34.40761 0,18.998725 -15.40389,34.404122 -34.40483,34.404122 -19.00087,0 -34.40475,-15.405397 -34.40475,-34.404122 0,-13.90017 8.24421,-25.87799 20.11186,-31.30454 l -2.40372,-4.82428 -43.43663,36.89228 c 0,0 -2.01965,1.60582 -5.62236,1.60582 h -9.17128 c -1.21836,17.89807 -16.11935,32.034842 -34.32361,32.034842 -19.00318,0 -34.40372,-15.405397 -34.40372,-34.404122 0,-19.00559 15.40054,-34.4076 34.40372,-34.4076"
       style="fill:#00674c;fill-opacity:1;fill-rule:evenodd;stroke:none;stroke-width:1.14294"
       id="path760"
       inkscape:connector-curvature="0" />
    <path
       class="shine" id=". copy"
       style="display:inline;fill:#00674c;fill-opacity:1;stroke:none;stroke-width:1.67444"
       d="m 224.28313,-365.95255 a 13.181243,13.181243 0 0 0 -13.17973,13.17972 13.181243,13.181243 0 0 0 13.17973,13.17972 13.181243,13.181243 0 0 0 13.18299,-13.17972 13.181243,13.181243 0 0 0 -13.18299,-13.17972 z m -60.84911,24.06031 a 10.850412,10.850412 0 0 0 -10.85122,10.85125 10.850412,10.850412 0 0 0 10.85122,10.85117 10.850412,10.850412 0 0 0 10.85117,-10.85117 10.850412,10.850412 0 0 0 -10.85117,-10.85125 z m 52.77121,5.07239 c -1.5003,0.39301 -3.01858,1.58944 -3.01858,1.58944 l -25.39796,19.41638 -0.85684,19.75327 -6.14508,3.37504 -7.50231,-21.43098 c 0,0 -1.07279,-3.16271 -3.39468,-3.66281 -1.92896,0.91089 -4.072,1.35717 -6.42961,1.35717 -2.4112,0 -4.5877,-0.48096 -6.57024,-1.44552 -3.33995,-0.1253 -5.25228,1.21333 -5.25228,1.21333 l -21.07447,15.80585 -4.55567,17.1108 10.00089,1.35718 3.64324,-14.85745 9.53976,-3.61053 -8.62733,31.07869 -20.91422,27.91616 9.5365,6.30533 30.47034,-34.22149 10.00089,36.4715 11.82577,-0.44491 -10.46854,-45.93936 0.91243,-12.61065 5.4485,9.4678 17.7354,-10.36064 1.37357,-18.91268 14.54019,-5.41257 -17.50318,46.15196 14.21643,-0.14367 -18.30771,31.66732 8.85952,5.18029 23.11194,-36.98823 12.1103,-0.12782 10.48164,41.17105 11.36139,-0.23226 -10.52089,-41.06316 12.3425,-0.12405 -17.39527,-39.06168 9.89297,7.77046 21.13007,11.46607 4.09127,-7.43037 -21.65007,-12.82328 -14.14448,-22.11117 c 0,0 -1.76815,-1.75247 -4.60801,-2.37761 -1.62531,-0.28541 -2.26965,-0.17657 -2.26965,-0.21264 -2.39333,1.17883 -5.07025,1.76606 -7.99941,1.76606 -2.92916,0 -5.60783,-0.60691 -8.01903,-1.78568 z" />
    <path
       class="shine" fill="#f7fbf5"
       d="m 433.11099,-103.03856 h 39.79069 v 18.536809 c 0,3.596155 2.60609,3.474331 2.60609,3.474331 h 12.0188 c 0,0 2.60609,0.121927 2.60609,-3.474331 v -18.536809 h 1.13884 l 8.11493,-9.24723 v -29.5265 l -8.11493,-6.08008 -11.71156,-29.66948 c -26.19341,-3.47433 -46.59728,-3.76562 -46.59728,-3.61732 0,-0.14828 -20.41974,0.14287 -46.61317,3.61732 l -11.71155,29.66948 -8.11494,6.08008 v 29.5265 l 8.11494,9.24723 h 1.15473 v 18.536809 c 0,3.596155 2.6114,3.474331 2.6114,3.474331 h 11.9976 c 0,0 2.60609,0.121927 2.60609,-3.474331 v -18.536809 h 40.10323"
       id="path3"
       style="display:inline;fill:#00674c;fill-opacity:1;stroke-width:0.6517" />
    <path
       class="shine" fill="#0e518d"
       d="m 432.96266,-149.92082 c 0,-0.14286 34.28717,0.8686 51.0891,2.17147 l 0.12183,-0.0636 -8.95715,-22.652 c -26.19343,-3.4743 -42.25379,-3.76559 -42.25379,-3.61729 0,-0.14828 -16.07623,0.14311 -42.26966,3.61729 l -8.95714,22.652 0.12182,0.0636 c 16.80193,-1.30287 51.10497,-2.31445 51.10497,-2.17147"
       id="path5"
       style="fill:#ffffff;fill-opacity:1;stroke-width:0.6517" />
    <path
       class="shine" fill="#0e518d"
       d="m 467.91196,-122.13678 h 22.28426 c 2.37834,0 2.54783,-2.46273 2.54783,-2.46273 v -11.50343 c 0,0 -0.1695,-2.45746 -2.54783,-2.45746 h -18.45458 c -2.37833,0 -3.23113,1.67362 -3.53835,2.39921 -0.51911,1.13867 -2.89744,11.56168 -2.89744,11.56168 0,2.31974 2.60611,2.46273 2.60611,2.46273"
       id="path7"
       style="fill:#ffffff;fill-opacity:1;stroke-width:0.6517" />
    <path
       class="shine" fill="#0e518d"
       d="m 397.99749,-122.13678 h -22.28428 c -2.37832,0 -2.52664,-2.46273 -2.52664,-2.46273 v -11.50343 c 0,0 0.14831,-2.45746 2.52664,-2.45746 h 18.45458 c 2.37835,0 3.23115,1.67362 3.53837,2.39921 0.51909,1.13867 2.89744,11.56168 2.89744,11.56168 0,2.31974 -2.60611,2.46273 -2.60611,2.46273"
       id="path9"
       style="fill:#ffffff;fill-opacity:1;stroke-width:0.6517" />
    <path
       class="shine" id="path3-7"
       style="fill:#00674c;fill-opacity:1;stroke-width:2.75478"
       d="m 1538.4902,295.53125 c -23.3811,0 -42.2148,18.95403 -42.2148,42.33789 0,23.3605 18.8337,42.2207 42.2148,42.2207 23.3812,0 42.3106,-18.8602 42.3106,-42.2207 0,-23.38386 -18.9294,-42.33789 -42.3106,-42.33789 z m -27.8105,98.05859 c -44.118,0 -51.1934,51.10743 -51.1934,51.10743 l -37.6914,136.28906 21.1074,7.07422 44.7676,-126.6836 3.1778,100.49414 -53.1192,308.90625 h 26.9317 l 73.5761,-231.51757 73.461,231.51757 h 26.9297 l -53.0958,-308.90625 1.254,-99.21875 71.6738,110.00586 17.8594,-10.78711 -59.4493,-117.17382 c 0,0 -20.4823,-49.83146 -51.1933,-51.10743 h -27.4395 z m 254.1543,146.35938 c -17.0256,0 -30.8047,13.84866 -30.8047,30.80664 0,17.02745 13.7791,30.90039 30.8047,30.90039 17.0256,0 30.8027,-13.87294 30.8027,-30.90039 0,-16.95798 -13.7771,-30.80664 -30.8027,-30.80664 z m -83.3652,34.05469 -14.0333,8.88476 33.2383,50.57227 31.2676,6.42578 v 63.88672 L 1700.6738,868.875 h 17.8614 l 44.1171,-117.08008 60.7969,103.04492 18.5801,-8.34961 -58.8945,-138.81835 10.8789,-49.92383 49.291,48.02148 13.4062,-14.77734 -68.4043,-70.31446 c 0,0 -7.7006,-11.50585 -23.0097,-11.50585 h -53.0938 z"
       transform="matrix(0.26458333,0,0,0.26458333,0,-459)" />
    <path
       class="shine" d="m 563.55267,230.29034 c 0,15.75078 -15.40072,28.57715 -34.31263,28.57715 H 80.134064 c -18.920619,0 -34.303932,-12.82637 -34.303932,-28.57715 v -623.40551 c 0,-15.75056 15.383313,-28.5697 34.303932,-28.5697 H 529.24004 c 18.91191,0 34.31263,12.81914 34.31263,28.5697 z m -34.31263,-670.1582 H 80.134064 c -30.949154,0 -56.13608,20.97697 -56.13608,46.75269 v 623.40551 c 0,25.77594 25.186926,46.7527 56.13608,46.7527 H 529.24004 c 30.96653,0 56.13608,-20.97676 56.13608,-46.7527 v -623.40551 c 0,-25.77572 -25.16955,-46.75269 -56.13608,-46.75269"
       style="fill:#00674c;fill-opacity:1;fill-rule:nonzero;stroke:none;stroke-width:6.34525"
       id="path4877"
       inkscape:connector-curvature="0" />
    <g
       aria-label="SHARED
ZONE"
       id="text6421"
       style="font-stretch:semi-condensed;font-size:136.198px;line-height:1.25;font-family:Bahnschrift;-inkscape-font-specification:'Bahnschrift Semi-Condensed';fill:#00674c;stroke-width:3.40495"
       transform="matrix(1.0620515,0,0,1.0620515,-18.946015,0.7078568)">
      <path
         class="shine" d="m 128.74681,10.792706 q -4.35834,-8.0356815 -13.4836,-8.1718795 -5.31173,0 -8.85287,3.2687519 -3.54115,3.268752 -3.40495,7.7632856 0,3.268752 3.13255,5.856514 3.26875,2.587762 10.21485,3.677346 16.47996,2.860158 23.83465,11.168236 7.49089,8.17188 7.49089,18.795324 0,11.713028 -8.85287,20.838293 -8.85287,8.989068 -22.06408,8.989068 Q 95.786893,82.705249 85.572043,61.730758 L 99.328041,54.78466 q 6.401309,13.211206 17.705739,13.211206 6.5375,0.136198 11.30443,-4.494534 4.76693,-4.76693 4.76693,-11.032038 0.1362,-4.222138 -3.67734,-8.308078 -3.81355,-4.222138 -13.4836,-5.992712 Q 102.86919,36.261732 95.923091,30.26902 88.976993,24.14011 88.976993,15.695834 88.704597,5.6171824 96.059289,-2.8270934 q 7.354691,-8.5804736 19.476311,-8.5804736 17.02475,0.408594 25.33283,16.0713634 z"
         style="font-stretch:normal;font-family:'Highway Gothic';-inkscape-font-specification:'Highway Gothic';text-align:center;text-anchor:middle"
         id="path11817" />
      <path
         class="shine" d="M 221.3614,81.343269 H 206.92441 V 41.709652 H 173.6921 V 81.343269 H 159.25511 V -9.9093893 H 173.6921 V 27.000268 h 33.23231 V -9.9093893 h 14.43699 z"
         style="font-stretch:normal;font-family:'Highway Gothic';-inkscape-font-specification:'Highway Gothic';text-align:center;text-anchor:middle"
         id="path11819" />
      <path
         class="shine" d="m 307.8469,81.343269 h -15.25417 l -8.98907,-25.605223 h -28.46538 l -8.98907,25.605223 h -15.39037 l 31.32554,-91.2526583 h 14.43699 z m -29.41876,-40.314607 -8.98907,-25.605224 -9.26146,25.605224 z"
         style="font-stretch:normal;font-family:'Highway Gothic';-inkscape-font-specification:'Highway Gothic';text-align:center;text-anchor:middle"
         id="path11821" />
      <path
         class="shine" d="M 379.35078,81.343269 H 363.68801 L 348.97863,41.709652 H 331.68148 V 81.343269 H 317.2445 V -9.9093893 h 36.09247 q 11.16823,0.136198 17.56954,8.1718798 6.5375,7.8994839 6.5375,17.4333435 0,7.218494 -3.94974,13.755998 -3.94974,6.401306 -10.21485,9.261464 z M 363.14322,16.104428 q 0,-5.311722 -3.26875,-8.1718796 -3.13255,-2.860158 -7.0823,-2.996356 H 331.68148 V 27.408862 h 21.65549 q 4.08594,0 6.94609,-2.996356 2.86016,-2.996356 2.86016,-8.308078 z"
         style="font-stretch:normal;font-family:'Highway Gothic';-inkscape-font-specification:'Highway Gothic';text-align:center;text-anchor:middle"
         id="path11823" />
      <path
         class="shine" d="M 449.49252,81.343269 H 392.83416 V -9.9093893 h 53.79821 V 4.5275984 H 407.27115 V 27.000268 h 26.55861 v 14.709384 h -26.55861 v 24.924234 h 42.22137 z"
         style="font-stretch:normal;font-family:'Highway Gothic';-inkscape-font-specification:'Highway Gothic';text-align:center;text-anchor:middle"
         id="path11825" />
      <path
         class="shine" d="m 525.08235,35.71694 q -0.1362,23.83465 -9.94245,34.73049 -9.67006,10.895839 -23.83465,10.895839 H 462.83987 V -9.9093893 h 28.46538 q 14.16459,0 23.83465,10.8958398 9.80625,10.8958395 9.94245,34.7304895 z m -47.8055,0 v 31.189342 h 14.0284 q 9.12526,-0.272396 14.16459,-8.716672 5.17552,-8.444276 5.31172,-22.47267 0,-14.98178 -5.17552,-22.881264 -5.17553,-8.0356816 -14.30079,-8.3080776 h -14.0284 z"
         style="font-stretch:normal;font-family:'Highway Gothic';-inkscape-font-specification:'Highway Gothic';text-align:center;text-anchor:middle"
         id="path11827" />
      <path
         class="shine" d="m 225.99202,211.62449 h -62.10628 v -13.07501 l 42.35757,-63.74066 h -38.81643 v -14.43699 h 58.56514 v 13.21121 l -43.03856,63.33207 h 43.03856 z"
         style="font-stretch:normal;font-family:'Highway Gothic';-inkscape-font-specification:'Highway Gothic';text-align:center;text-anchor:middle"
         id="path11829" />
      <path
         class="shine" d="m 269.16674,213.25887 q -16.07137,0 -24.78804,-12.12162 -8.58047,-12.25782 -8.58047,-35.13909 0,-22.33647 8.58047,-34.73049 8.71667,-12.39402 24.78804,-12.39402 16.34376,0 24.78803,12.39402 8.58048,12.39402 8.58048,34.73049 0,22.88127 -8.58048,35.13909 -8.44427,12.12162 -24.78803,12.12162 z m 0,-79.94823 q -9.53386,0 -13.8922,9.12527 -4.35833,8.98907 -4.49453,23.28986 0,16.07136 4.22214,24.37944 4.35833,8.30808 14.16459,8.17188 10.35105,-0.2724 14.30079,-8.58048 3.94974,-8.30807 4.22214,-23.97084 -0.2724,-15.25418 -4.63074,-23.56226 -4.22213,-8.30808 -13.89219,-8.85287 z"
         style="font-stretch:normal;font-family:'Highway Gothic';-inkscape-font-specification:'Highway Gothic';text-align:center;text-anchor:middle"
         id="path11831" />
      <path
         class="shine" d="M 376.62677,211.62449 H 363.82416 L 328.95747,149.7906 v 61.83389 h -14.43698 v -91.25266 h 14.43698 l 33.23231,58.29275 v -58.29275 h 14.43699 z"
         style="font-stretch:normal;font-family:'Highway Gothic';-inkscape-font-specification:'Highway Gothic';text-align:center;text-anchor:middle"
         id="path11833" />
      <path
         class="shine" d="m 446.76853,211.62449 h -56.65837 v -91.25266 h 53.79821 v 14.43699 h -39.36122 v 22.47267 h 26.55861 v 14.70938 h -26.55861 v 24.92424 h 42.22138 z"
         style="font-stretch:normal;font-family:'Highway Gothic';-inkscape-font-specification:'Highway Gothic';text-align:center;text-anchor:middle"
         id="path11835" />
    </g>
  </g>
</svg>
